<svg width="110" height="31" viewBox="0 0 110 31" fill="none" xmlns="http://www.w3.org/2000/svg">
<path d="M27.9832 19.6308H25.9705V17.4731C25.9705 17.3018 25.9025 17.1375 25.7813 17.0164C25.6602 16.8952 25.4959 16.8271 25.3245 16.8271H22.5648C22.4802 16.8271 22.3964 16.8439 22.3183 16.8764C22.2401 16.9089 22.1692 16.9566 22.1096 17.0166C22.05 17.0767 22.0028 17.1479 21.9708 17.2263C21.9388 17.3046 21.9227 17.3885 21.9232 17.4731V29.5975C21.9227 29.6821 21.9388 29.766 21.9708 29.8444C22.0028 29.9227 22.05 29.9939 22.1096 30.054C22.1692 30.114 22.2401 30.1617 22.3183 30.1942C22.3964 30.2267 22.4802 30.2435 22.5648 30.2435H25.3245C25.4959 30.2435 25.6602 30.1754 25.7813 30.0543C25.9025 29.9331 25.9705 29.7688 25.9705 29.5975V23.6957H27.9832C28.1545 23.6957 28.3188 23.6276 28.44 23.5065C28.5611 23.3854 28.6292 23.221 28.6292 23.0497V20.2768C28.6292 20.1055 28.5611 19.9412 28.44 19.82C28.3188 19.6989 28.1545 19.6308 27.9832 19.6308Z" fill="black"/>
<path d="M18.0962 19.6301H16.8702L23.642 1.28319C23.6747 1.19537 23.6856 1.10095 23.6738 1.00801C23.662 0.915059 23.6279 0.826353 23.5743 0.749476C23.5207 0.672598 23.4494 0.609838 23.3663 0.566562C23.2832 0.523286 23.1908 0.500783 23.0971 0.500978H20.2979C20.1236 0.503777 19.9541 0.558331 19.8109 0.657707C19.6677 0.757083 19.5573 0.896792 19.4937 1.05908L12.4625 20.0212C12.396 20.2013 12.3618 20.3917 12.3615 20.5837V22.4514C12.3672 22.6865 12.4646 22.91 12.633 23.0742C12.8013 23.2384 13.0272 23.3303 13.2623 23.3302H18.0962C18.1814 23.3303 18.2658 23.3134 18.3445 23.2807C18.4231 23.2479 18.4945 23.1999 18.5546 23.1395C18.6146 23.079 18.6621 23.0073 18.6943 22.9284C18.7265 22.8495 18.7428 22.7651 18.7422 22.6799V20.2761C18.7422 20.1048 18.6742 19.9405 18.553 19.8193C18.4319 19.6982 18.2676 19.6301 18.0962 19.6301Z" fill="black"/>
<path d="M8.92565 26.5342H1.14745C0.703308 26.5342 0.343262 26.8942 0.343262 27.3384V29.4345C0.343262 29.8787 0.703308 30.2387 1.14745 30.2387H8.92565C9.36979 30.2387 9.72984 29.8787 9.72984 29.4345V27.3384C9.72984 26.8942 9.36979 26.5342 8.92565 26.5342Z" fill="black"/>
<path d="M0.707536 9.13171L3.48923 6.39395H3.5156V22.5217C3.5156 22.7419 3.6031 22.9532 3.75886 23.1089C3.91462 23.2647 4.12587 23.3522 4.34615 23.3522H6.64006C6.86034 23.3522 7.07159 23.2647 7.22735 23.1089C7.38311 22.9532 7.47061 22.7419 7.47061 22.5217V1.22166C7.47127 1.12439 7.45223 1.02799 7.41464 0.938276C7.37705 0.848559 7.32168 0.76738 7.25188 0.699631C7.18208 0.631882 7.09929 0.578965 7.00849 0.544068C6.91769 0.509171 6.82076 0.493016 6.72356 0.496577H4.50435C4.38628 0.49646 4.26939 0.520137 4.16066 0.566193C4.05194 0.612249 3.95361 0.679741 3.87155 0.764639L0.193383 4.54828C0.0693372 4.67688 2.17771e-05 4.84859 2.69977e-05 5.02727V8.83728C-0.000914727 8.91966 0.0227997 9.00044 0.0681227 9.06924C0.113446 9.13804 0.178307 9.19172 0.254371 9.22337C0.330435 9.25503 0.414227 9.26321 0.494979 9.24688C0.575731 9.23054 0.649754 9.19044 0.707536 9.13171Z" fill="black"/>
<path d="M43.8569 14.4183C43.7865 14.3644 43.7288 14.2957 43.6881 14.2169C43.6473 14.1382 43.6245 14.0515 43.6211 13.9629C43.6177 13.8743 43.634 13.7861 43.6687 13.7045C43.7033 13.623 43.7556 13.5501 43.8217 13.491C44.3425 13.0304 44.7661 12.4706 45.0679 11.8443C45.3698 11.2181 45.5437 10.5379 45.5795 9.84361C45.5857 9.78232 45.5789 9.72042 45.5596 9.66192C45.5403 9.60342 45.5089 9.54964 45.4674 9.50406C45.426 9.45848 45.3754 9.42212 45.319 9.39734C45.2626 9.37256 45.2017 9.35991 45.1401 9.36022H42.0815C41.9742 9.36409 41.8716 9.40527 41.7914 9.47666C41.7112 9.54805 41.6584 9.64519 41.6421 9.75133C41.4224 11.2718 40.4644 11.742 39.1944 11.742C37.7398 11.742 36.6939 11.1268 36.6939 9.02624V6.27091C36.6939 4.17475 37.7398 3.55952 39.1944 3.55952C40.5479 3.55952 41.5454 4.09125 41.6772 5.84904C41.6772 5.96559 41.7235 6.07736 41.8059 6.15977C41.8884 6.24219 42.0001 6.28849 42.1167 6.28849H45.1049C45.1665 6.28879 45.2275 6.27615 45.2839 6.25137C45.3403 6.22659 45.3908 6.19023 45.4323 6.14465C45.4737 6.09907 45.5051 6.04528 45.5244 5.98679C45.5437 5.92829 45.5505 5.86639 45.5444 5.80509C45.3158 2.12253 42.8769 0 39.1812 0C35.2701 0 32.7697 2.37301 32.7697 6.4335V9.5316C32.7703 10.277 32.9271 11.014 33.2298 11.6952C33.5326 12.3764 33.9746 12.9866 34.5274 13.4866C34.5932 13.5456 34.6451 13.6183 34.6794 13.6997C34.7137 13.7811 34.7296 13.8691 34.7258 13.9574C34.722 14.0456 34.6987 14.132 34.6576 14.2101C34.6164 14.2883 34.5585 14.3564 34.4879 14.4095C33.2838 15.2884 32.5763 16.9978 32.5763 18.9182V24.3849C32.5763 28.5377 35.1646 30.8184 39.168 30.8184C43.1713 30.8184 45.7597 28.5816 45.7597 24.3849V18.927C45.7729 17.0066 45.061 15.3103 43.8569 14.4183ZM41.6069 24.1696C41.6069 26.068 40.4951 26.7491 39.1812 26.7491C37.8672 26.7491 36.751 26.0636 36.751 24.1696V19.5378C36.751 17.6394 37.8628 16.9627 39.1812 16.9627C40.4995 16.9627 41.6069 17.6394 41.6069 19.5378V24.1696Z" fill="black"/>
<path fill-rule="evenodd" clip-rule="evenodd" d="M79.5641 20.4728C80.0555 20.745 80.6439 20.881 81.3293 20.881C82.144 20.881 82.81 20.6966 83.3273 20.3277C83.851 19.9588 84.1775 19.4478 84.3069 18.7946H82.9393C82.8553 19.1212 82.6742 19.3782 82.3962 19.5657C82.1246 19.7471 81.7625 19.8378 81.3099 19.8378C80.6827 19.8378 80.1913 19.6413 79.8357 19.2482C79.48 18.8491 79.3022 18.3018 79.3022 17.6063C79.3022 16.9109 79.48 16.3636 79.8357 15.9644C80.1913 15.5653 80.6827 15.3657 81.3099 15.3657C81.7625 15.3657 82.1246 15.4655 82.3962 15.6651C82.6742 15.8586 82.8553 16.1277 82.9393 16.4724H84.3069C84.1775 15.7891 83.851 15.2599 83.3273 14.885C82.81 14.504 82.144 14.3135 81.3293 14.3135C80.6439 14.3135 80.0555 14.4526 79.5641 14.7308C79.0727 15.0089 78.6944 15.396 78.4293 15.8919C78.1642 16.3878 78.0317 16.9592 78.0317 17.6063C78.0317 18.2534 78.1642 18.8249 78.4293 19.3208C78.6944 19.8106 79.0727 20.1946 79.5641 20.4728ZM85.3863 20.7722V14.4223H89.8187V15.3567H86.6277V17.0983H89.5277V18.0055H86.6277V19.8378H89.8187V20.7722H85.3863ZM53.1306 30.4103C53.622 30.6825 54.2104 30.8185 54.8958 30.8185C55.7105 30.8185 56.3765 30.6341 56.8938 30.2652C57.4175 29.8963 57.7441 29.3853 57.8734 28.7321H56.5058C56.4218 29.0587 56.2407 29.3157 55.9627 29.5032C55.6911 29.6846 55.329 29.7753 54.8764 29.7753C54.2492 29.7753 53.7578 29.5788 53.4022 29.1857C53.0466 28.7866 52.8688 28.2393 52.8688 27.5438C52.8688 26.8484 53.0466 26.3011 53.4022 25.9019C53.7578 25.5028 54.2492 25.3032 54.8764 25.3032C55.329 25.3032 55.6911 25.403 55.9627 25.6026C56.2407 25.7961 56.4218 26.0652 56.5058 26.4099H57.8734C57.7441 25.7266 57.4175 25.1974 56.8938 24.8225C56.3765 24.4415 55.7105 24.251 54.8958 24.251C54.2104 24.251 53.622 24.3901 53.1306 24.6683C52.6392 24.9464 52.261 25.3335 51.9959 25.8294C51.7308 26.3253 51.5982 26.8967 51.5982 27.5438C51.5982 28.1909 51.7308 28.7624 51.9959 29.2583C52.261 29.7481 52.6392 30.1321 53.1306 30.4103ZM62.1341 30.8185C61.4552 30.8185 60.8603 30.6794 60.3495 30.4012C59.8452 30.1231 59.4475 29.7391 59.1565 29.2492C58.872 28.7533 58.7298 28.1818 58.7298 27.5347C58.7298 26.8877 58.872 26.3192 59.1565 25.8294C59.4475 25.3335 59.8452 24.9464 60.3495 24.6683C60.8603 24.3901 61.4552 24.251 62.1341 24.251C62.8066 24.251 63.3982 24.3901 63.909 24.6683C64.4198 24.9464 64.8175 25.3335 65.102 25.8294C65.3865 26.3192 65.5287 26.8877 65.5287 27.5347C65.5287 28.1818 65.3865 28.7533 65.102 29.2492C64.8175 29.7391 64.4198 30.1231 63.909 30.4012C63.3982 30.6794 62.8066 30.8185 62.1341 30.8185ZM62.1341 29.7753C62.7807 29.7753 63.2947 29.5758 63.6762 29.1766C64.0642 28.7775 64.2582 28.2302 64.2582 27.5347C64.2582 26.8393 64.0642 26.292 63.6762 25.8929C63.2947 25.4937 62.7807 25.2942 62.1341 25.2942C61.4875 25.2942 60.9702 25.4937 60.5823 25.8929C60.1943 26.292 60.0004 26.8393 60.0004 27.5347C60.0004 28.2302 60.1943 28.7775 60.5823 29.1766C60.9702 29.5758 61.4875 29.7753 62.1341 29.7753ZM85.913 30.8185C85.2276 30.8185 84.6392 30.6825 84.1478 30.4103C83.6564 30.1321 83.2781 29.7481 83.013 29.2583C82.7479 28.7624 82.6154 28.1909 82.6154 27.5438C82.6154 26.8967 82.7479 26.3253 83.013 25.8294C83.2781 25.3335 83.6564 24.9464 84.1478 24.6683C84.6392 24.3901 85.2276 24.251 85.913 24.251C86.7277 24.251 87.3937 24.4415 87.911 24.8225C88.4347 25.1974 88.7612 25.7266 88.8905 26.4099H87.523C87.4389 26.0652 87.2579 25.7961 86.9799 25.6026C86.7083 25.403 86.3462 25.3032 85.8936 25.3032C85.2664 25.3032 84.775 25.5028 84.4193 25.9019C84.0637 26.3011 83.8859 26.8484 83.8859 27.5438C83.8859 28.2393 84.0637 28.7866 84.4193 29.1857C84.775 29.5788 85.2664 29.7753 85.8936 29.7753C86.3462 29.7753 86.7083 29.6846 86.9799 29.5032C87.2579 29.3157 87.4389 29.0587 87.523 28.7321H88.8905C88.7612 29.3853 88.4347 29.8963 87.911 30.2652C87.3937 30.6341 86.7277 30.8185 85.913 30.8185ZM91.4659 25.2942V30.7097H92.7073V25.2942H94.6956V24.3598H89.4873V25.2942H91.4659ZM95.5959 30.7097V24.3598H96.8373V30.7097H95.5959ZM97.6199 24.3598L100.103 30.7097H101.626L104.108 24.3598H102.799L100.869 29.5213L98.9487 24.3598H97.6199ZM104.896 24.3598V30.7097H109.328V29.7753H106.137V27.943H109.037V27.0358H106.137V25.2942H109.328V24.3598H104.896ZM77.2509 24.3598V30.7097H81.6833V29.7753H78.4924V27.943H81.3923V27.0358H78.4924V25.2942H81.6833V24.3598H77.2509ZM71.9282 30.7097V24.3598H73.1697V29.8026H76.1763V30.7097H71.9282ZM66.6055 24.3598V30.7097H70.8536V29.8026H67.847V24.3598H66.6055ZM71.2841 20.7722V14.4223H72.5255L75.7165 18.8944V14.4223H76.9579V20.7722H75.7165L72.5255 16.3091V20.7722H71.2841ZM65.6962 14.4223V20.7722H70.1286V19.8378H66.9377V18.0055H69.8377V17.0983H66.9377V15.3567H70.1286V14.4223H65.6962ZM61.1821 20.881C60.542 20.881 59.9827 20.745 59.5042 20.4728C59.0257 20.2007 58.6539 19.8227 58.3888 19.3389C58.1237 18.8491 57.9911 18.2806 57.9911 17.6335C57.9911 16.9804 58.1269 16.4059 58.3985 15.91C58.6765 15.4081 59.0677 15.018 59.5721 14.7398C60.0829 14.4556 60.6874 14.3135 61.3858 14.3135C62.1811 14.3135 62.8406 14.4919 63.3643 14.8487C63.8881 15.2055 64.2275 15.6983 64.3827 16.3273H62.9958C62.8923 16.031 62.7048 15.8012 62.4332 15.6379C62.1617 15.4685 61.8125 15.3839 61.3858 15.3839C60.7068 15.3839 60.1831 15.5865 59.8145 15.9916C59.446 16.3908 59.2617 16.9411 59.2617 17.6426C59.2617 18.3441 59.4428 18.8884 59.8048 19.2754C60.1734 19.6564 60.6713 19.8469 61.2985 19.8469C61.9127 19.8469 62.375 19.6927 62.6854 19.3843C63.0022 19.0698 63.193 18.6586 63.2576 18.1506H61.5409V17.2798H64.5088V20.7722H63.3643L63.2673 19.9376C63.0475 20.24 62.7727 20.4728 62.4429 20.6361C62.1132 20.7994 61.6929 20.881 61.1821 20.881ZM53.8678 14.4223L51.3849 20.7722H52.6845L53.2374 19.3026H55.8852L56.4283 20.7722H57.7474L55.2644 14.4223H53.8678ZM55.5457 18.3955H53.5768L54.5564 15.7558L55.5457 18.3955Z" fill="black"/>
</svg>
