<?xml version="1.0" encoding="utf-8"?>
<!-- Generator: Adobe Illustrator 27.2.0, SVG Export Plug-In . SVG Version: 6.00 Build 0)  -->
<svg version="1.1" id="Calque_1" xmlns="http://www.w3.org/2000/svg" xmlns:xlink="http://www.w3.org/1999/xlink" x="0px" y="0px"
	 viewBox="0 0 439.9 291.9" style="enable-background:new 0 0 439.9 291.9;" xml:space="preserve">
<style type="text/css">
	.st0{fill:#FFFFFF;}
	.st1{fill:#FECA05;}
</style>
<g>
	<path class="st0" d="M5.9,167.8h38.6c26.3,0,39.9,11.3,39.9,31.8c0,12.1-4.8,20.2-15.5,25.5c10.5,3.7,15.8,12.4,15.8,25.8
		c0,21.3-13.6,32.3-40.5,32.3H5.9V167.8L5.9,167.8z M41.1,212.9c9,0,13.4-3.1,13.4-9.2c0-7.4-4-10.2-13.4-10.2h-5.3v19.4H41.1
		L41.1,212.9z M41.9,256.8c8.6,0,12.9-3.2,12.9-9.9c0-7.6-4.4-11.1-13.6-11.1h-5.5v21H41.9L41.9,256.8z"/>
	<path class="st0" d="M148.6,283.3H85.4V167.9h29.9v83.6h44.5L148.6,283.3L148.6,283.3z"/>
	<path class="st0" d="M193.1,167.8h33.8L265,283.3h-31.6l-4.2-12.9h-40.9l-4.4,12.9h-31.2L193.1,167.8L193.1,167.8z M220.4,241.5
		l-12-38.9l-11.8,38.9H220.4L220.4,241.5z"/>
	<path class="st0" d="M334.5,167.8h29.9v51.3l25-51.4h34.4l-27.9,52.6l28.6,62.8h-33.1l-27-61.5v61.5h-29.9V167.8L334.5,167.8z"/>
	<circle class="st1" cx="54.8" cy="86.5" r="26.8"/>
	<path class="st0" d="M330.4,240.3c-4.6,6.4-12.1,10.6-20.6,10.6c-14,0-25.4-11.4-25.4-25.4s11.4-25.4,25.4-25.4
		c8.5,0,16,4.2,20.6,10.6v-39.2c-6.4-2.4-13.4-3.8-20.6-3.8c-31.9,0-57.8,25.9-57.8,57.8s25.9,57.8,57.8,57.8
		c7.3,0,14.2-1.4,20.6-3.8V240.3L330.4,240.3z"/>
	<polygon class="st0" points="223.7,166.4 240.3,166.4 260.2,105.7 279.1,163.3 280.1,166.4 296.7,166.4 297.6,163.8 297.9,163.7 
		297.7,163.3 349.1,6.6 330.5,6.6 288.4,135 269.5,77.3 260.2,49 250.9,77.3 232,135 189.9,6.6 171.3,6.6 222.7,163.3 	"/>
	<polygon class="st0" points="368.3,148.7 368.3,6.6 350.6,6.6 350.6,166.4 354.5,166.4 368.3,166.4 424.8,166.4 434.2,148.7 	"/>
	<path class="st0" d="M97.9,6.7c-51,0-92.3,35.8-92.3,79.9s41.3,79.9,92.3,79.9s92.3-35.8,92.3-79.9S148.9,6.7,97.9,6.7z
		 M97.9,148.8c-39.8,0-72-27.9-72-62.3s32.2-62.3,72-62.3s72,27.9,72,62.3S137.7,148.8,97.9,148.8z"/>
</g>
</svg>
