<svg width="300" height="76" viewBox="0 0 300 76" fill="none" xmlns="http://www.w3.org/2000/svg">
<path d="M38.14 46.972H65.972V47.168H60.337V59.124C59.3897 60.692 58.1483 62.4397 56.613 64.367C55.1103 66.2943 53.2483 68.14 51.027 69.904C48.8383 71.668 46.225 73.1217 43.187 74.265C40.1817 75.4083 36.6863 75.98 32.701 75.98C25.7757 75.98 19.8793 74.3793 15.012 71.178C10.1447 67.944 6.437 63.5013 3.889 57.85C1.341 52.166 0.0670002 45.6327 0.0670002 38.25C0.0670002 32.7293 0.9 27.666 2.566 23.06C4.26467 18.4213 6.633 14.436 9.671 11.104C12.709 7.73933 16.3023 5.14233 20.451 3.313C24.6323 1.451 29.2057 0.519995 34.171 0.519995C37.3723 0.519995 40.3777 1.09166 43.187 2.235C45.9963 3.34566 48.4627 4.89733 50.586 6.88999L57.691 1.49999H57.887V21.982H57.691C57.5603 19.0747 56.858 16.347 55.584 13.799C54.31 11.251 52.6277 9.02966 50.537 7.13499C48.4463 5.20766 46.078 3.70499 43.432 2.62699C40.8187 1.54899 38.091 1.00999 35.249 1.00999C31.1657 1.00999 27.6867 2.10433 24.812 4.293C21.97 6.449 19.6833 9.34 17.952 12.966C16.2207 16.5593 14.9467 20.561 14.13 24.971C13.346 29.3483 12.954 33.7747 12.954 38.25C12.954 42.6927 13.248 47.1353 13.836 51.578C14.424 56.0207 15.4367 60.0713 16.874 63.73C18.3113 67.356 20.3203 70.2797 22.901 72.501C25.4817 74.6897 28.7483 75.784 32.701 75.784C35.4777 75.784 37.8133 75.245 39.708 74.167C41.6027 73.089 43.138 71.7987 44.314 70.296C45.49 68.7607 46.4047 67.2907 47.058 65.886C47.7113 64.4487 48.1687 63.4033 48.43 62.75V47.168H38.14V46.972ZM81.371 13.652C79.5743 13.652 78.039 13.015 76.765 11.741C75.491 10.4343 74.854 8.88266 74.854 7.086C74.854 5.25667 75.491 3.705 76.765 2.431C78.039 1.157 79.5743 0.519995 81.371 0.519995C83.233 0.519995 84.7847 1.157 86.026 2.431C87.3 3.705 87.937 5.25667 87.937 7.086C87.937 8.88266 87.3 10.4343 86.026 11.741C84.7847 13.015 83.233 13.652 81.371 13.652ZM86.467 29.92V74.804H92.445V75H70.248V74.804H76.275V30.116H70.248V29.92H86.467ZM114.688 29.92V74.804H120.274V75H98.469V74.804H104.545V30.116H98.469V29.92H114.688ZM144.578 43.738V74.804H150.605V75H128.8V74.804H134.386V44.522C134.386 41.778 134.272 39.3117 134.043 37.123C133.814 34.9017 133.308 33.154 132.524 31.88C131.74 30.5733 130.482 29.92 128.751 29.92C125.582 29.92 123.051 30.704 121.156 32.272C119.261 33.84 117.84 35.8327 116.893 38.25C115.978 40.6673 115.374 43.2153 115.08 45.894C114.819 48.54 114.688 50.9573 114.688 53.146L114.492 53.587C114.492 51.235 114.623 48.6543 114.884 45.845C115.178 43.003 115.831 40.308 116.844 37.76C117.857 35.1793 119.457 33.0723 121.646 31.439C123.835 29.773 126.84 28.94 130.662 28.94C134.419 28.94 137.293 29.577 139.286 30.851C141.311 32.125 142.7 33.889 143.451 36.143C144.202 38.3643 144.578 40.896 144.578 43.738ZM196.503 75V74.804H205.813L163.771 1.696H157.793V1.49999H186.899V1.696H176.805L219.288 74.804H225.609V75H196.503ZM154.412 75V74.804H165.339L190.868 34.134H191.162L165.633 74.804H177.883V75H154.412ZM189.986 38.054L211.399 1.696H198.708V1.49999H220.219V1.696H211.644L190.28 38.054H189.986ZM258.252 75V74.804H263.789L233.997 30.116H229.293V29.92H253.009V30.116H246.149L276.088 74.804H279.812V75H258.252ZM228.46 75V74.804H235.173L270.502 30.116H262.221V29.92H278.391V30.116H270.796L235.467 74.804H245.365V75H228.46ZM292.403 75.98C291.161 75.98 290.034 75.6697 289.022 75.049C288.009 74.461 287.192 73.6607 286.572 72.648C285.984 71.6353 285.69 70.5083 285.69 69.267C285.69 68.0583 285.984 66.9477 286.572 65.935C287.192 64.8897 288.009 64.073 289.022 63.485C290.034 62.8643 291.161 62.554 292.403 62.554C293.611 62.554 294.722 62.8643 295.735 63.485C296.78 64.073 297.597 64.8897 298.185 65.935C298.805 66.9477 299.116 68.0583 299.116 69.267C299.116 70.5083 298.805 71.6353 298.185 72.648C297.597 73.6607 296.78 74.461 295.735 75.049C294.722 75.6697 293.611 75.98 292.403 75.98Z" fill="black"/>
</svg>
