<?xml version="1.0" encoding="utf-8"?>
<!-- Generator: Adobe Illustrator 19.0.0, SVG Export Plug-In . SVG Version: 6.00 Build 0)  -->
<svg version="1.1" id="Capa_1" xmlns="http://www.w3.org/2000/svg" xmlns:xlink="http://www.w3.org/1999/xlink" x="0px" y="0px"
	 viewBox="-223 25 512 512" style="enable-background:new -223 25 512 512;" xml:space="preserve">
<style type="text/css">
	.st0{fill:#FFFFFF;}
</style>
<g>
	<g>
		<path class="st0" d="M203.5,110.8c-3.9-3.9-10.2-3.9-14.1,0c-3.9,3.9-3.9,10.2,0,14.1c0,0,0,0,0.1,0.1c1.9,1.9,4.5,2.9,7,2.9
			c2.6,0,5.1-1,7.1-2.9C207.4,121,207.4,114.7,203.5,110.8z"/>
	</g>
</g>
<g>
	<g>
		<path class="st0" d="M275,329.9c-2.6-5.4-3.5-11.3-2.8-17.2c1.5-11.8,2.2-23.8,2-35.7c-0.8-46.3-14.9-91.2-40.8-129.7
			c-3.1-4.6-9.3-5.8-13.9-2.7c-4.6,3.1-5.8,9.3-2.7,13.9c23.7,35.3,36.6,76.4,37.4,118.9c0.2,10.9-0.4,22-1.8,32.8
			c-1.3,9.7,0.3,19.5,4.5,28.3c8.1,17.1,12.1,35.4,12,54.4c-0.4,67.9-56,123.6-123.9,124.1c-19.2,0.2-37.6-3.9-54.7-12.1
			c-8.5-4.1-18.1-5.5-27.7-4.2c-9.8,1.3-19.7,2-29.6,2c-122,0-221.3-99.3-221.3-221.3c0-9.8,0.7-19.7,1.9-29.4
			c1.3-9.7-0.2-19.3-4.3-27.9c-8.3-17.2-12.4-35.6-12.3-54.8c0.4-68.2,56.2-124,124.5-124.3c19.1-0.1,37.5,4.1,54.6,12.3
			c8.8,4.2,18.6,5.8,28.3,4.6c10.8-1.4,21.8-2,32.7-1.8c42.6,0.8,83.9,13.8,119.2,37.6c4.6,3.1,10.8,1.9,13.9-2.7
			c3.1-4.6,1.9-10.8-2.7-13.9c-38.6-26-83.6-40.2-130.1-41c-11.9-0.2-23.9,0.5-35.6,2c-5.8,0.8-11.7-0.2-17-2.8
			C-34.9,29.8-56,25-78,25c-0.2,0-0.4,0-0.6,0c-79.2,0.3-144,65-144.4,144.2c-0.1,22.3,4.7,43.7,14.3,63.6c2.4,5,3.3,10.8,2.5,16.6
			c-1.4,10.6-2.1,21.3-2.1,32c0,64.5,25.1,125.1,70.7,170.6c45.6,45.6,106.2,70.7,170.6,70.7c10.8,0,21.6-0.7,32.3-2.2
			c5.8-0.8,11.5,0.1,16.5,2.5c19.5,9.3,40.5,14,62.2,14c0.4,0,0.8,0,1.2,0c78.8-0.6,143.3-65.3,143.8-144
			C289.1,370.9,284.4,349.7,275,329.9z"/>
	</g>
</g>
<g>
	<g>
		<path class="st0" d="M164.7,314.4c-22.3-52.6-77.6-64.9-131.1-76.7c-8.5-1.9-17.2-3.8-25.7-5.9c-8.1-2-26.8-7.9-25.3-20.3
			c1.4-11.2,19-26.6,44.5-26.3c24.2,0.4,41.8,15.7,57.4,29.2c13.2,11.4,24.7,21.3,38.2,19.7c14.6-1.8,27.5-13,32-28
			c5.6-18.4-2-38.1-20.7-54.2c-34.9-29.8-76.9-41.3-132-36.3c-25.7,2.3-49.6,12.1-67.3,27.6c-20.2,17.7-32.3,42.3-35,71.3
			c-2.8,29.2,11.1,54.9,40,74.2c29.3,19.6,65,27.2,83.6,29.9c30.2,4.5,53.9,14.9,57.8,25.3c1.6,4.4-0.5,10-6.3,16.6
			c-22.7,25.8-68.9,10-82.3,1.6c-3.3-2-7.6-6.8-12.2-11.7c-11.4-12.5-27.1-29.7-49.7-28.2c-15.2,1-27.9,10.6-33,24.8
			c-6.7,18.9,0.7,40.9,19.8,58.8c27.2,25.5,56.9,41.6,115.6,41.6c6,0,12.4-0.2,19.1-0.5c0,0,0,0,0,0c42.8-2.2,84-25.3,105-58.8
			C172.1,364.4,174.7,338.3,164.7,314.4z M140.3,377.5c-17.4,27.7-53.2,47.6-89.1,49.5c-64.9,3.4-93.1-10.5-120-35.7
			C-82,379-87.4,365-83.4,353.8c2.4-6.8,8.2-11.1,15.4-11.6c0.5,0,0.9,0,1.3,0c12.4,0,22.5,11.1,32.2,21.8
			c5.5,6,10.7,11.7,16.4,15.2c9.2,5.8,27.7,12.9,46.4,15c26,2.9,47.3-4.2,61.5-20.4c13.7-15.7,13-28.6,10-36.7
			c-9.6-26-54.7-35.4-73.6-38.2c-28.9-4.3-56.4-14-75.4-26.8c-22.8-15.2-33.3-34-31.2-55.8c5-54.5,46.7-77.4,84.2-80.8
			c50.1-4.5,86.3,5.2,117.2,31.6c12.6,10.8,17.8,22.6,14.5,33.2c-2.2,7.4-8.5,13.1-15.3,13.9c-4.8,0.6-14.3-7.7-22.7-14.9
			c-16.3-14.1-38.7-33.5-70.2-34c-15.5-0.2-30.9,4.2-43,12.4c-12.3,8.3-20.1,19.7-21.6,31.3c-0.9,7.4-0.8,32.3,40.4,42.2
			c8.7,2.1,17.5,4.1,26.1,6c50.8,11.2,98.7,21.9,117,65C155.8,344.8,148.3,364.8,140.3,377.5z"/>
	</g>
</g>
<g>
	<g>
		<path class="st0" d="M-164.4,159.1c-0.1,0-0.1,0-0.2,0c-5.4,0-9.9,4.4-10,9.8l0,0.3c0,5.5,4.5,10,10,10c0,0,0,0,0,0
			c5.5,0,10-4.5,10-10C-154.5,163.7-158.9,159.2-164.4,159.1z"/>
	</g>
</g>
<g>
	<g>
		<path class="st0" d="M-78.6,73.3C-78.6,73.3-78.6,73.3-78.6,73.3c-37.2,0.2-71.4,22.1-87.1,56c-2.3,5-0.2,11,4.9,13.3
			c1.4,0.6,2.8,0.9,4.2,0.9c3.8,0,7.4-2.1,9.1-5.8c12.5-26.9,39.6-44.3,69-44.4c5.5,0,10-4.5,10-10C-68.6,77.8-73,73.3-78.6,73.3z"
			/>
	</g>
</g>
</svg>
