<?xml version="1.0" encoding="utf-8"?>
<!-- Generator: Adobe Illustrator 19.0.0, SVG Export Plug-In . SVG Version: 6.00 Build 0)  -->
<svg version="1.1" id="Capa_1" xmlns="http://www.w3.org/2000/svg" xmlns:xlink="http://www.w3.org/1999/xlink" x="0px" y="0px"
	 viewBox="-223 25 512 512" style="enable-background:new -223 25 512 512;" xml:space="preserve">
<style type="text/css">
	.st0{fill:#FFFFFF;}
</style>
<g>
	<g>
		<path class="st0" d="M223,25h-380c-36.4,0-66,29.6-66,66v380c0,36.4,29.6,66,66,66h380c36.4,0,66-29.6,66-66V91
			C289,54.6,259.4,25,223,25z M269,471c0,25.4-20.6,46-46,46h-380c-25.4,0-46-20.6-46-46V91c0-25.4,20.6-46,46-46h380
			c25.4,0,46,20.6,46,46V471z"/>
	</g>
</g>
<g>
	<g>
		<path class="st0" d="M189.4,235.2C189.4,235.2,189.4,235.2,189.4,235.2c-14.2-16.3-33.8-24.5-58.4-24.5
			c-17.7,0-33.1,3.6-45.7,10.8c-6.1,3.5-12.1,8.1-18.1,13.7v-9.5c0-5.5-4.5-10-10-10h-72.8c-5.5,0-10,4.5-10,10v222.5
			c0,5.5,4.5,10,10,10h72.3c5.5,0,10-4.5,10-10V322.1c0-16.8,12.3-30.6,28.1-31.5l2.5-0.1c6.2-0.3,12.1,1.9,16.8,6.3
			c5,4.8,7.9,11.6,7.9,18.8v132.7c0,5.5,4.5,10,10,10h68.1c5.5,0,10-4.5,10-10V306.8C210.3,275.1,203.3,251,189.4,235.2z
			 M190.3,438.2h-48.1h0V315.5c0-12.7-5.2-24.8-14.2-33.3c-8.7-8.2-19.9-12.4-31.6-11.7l-2.5,0.1c-26.4,1.4-47,24.1-47,51.5v116.2
			H-5.5V235.7h52.8V262c0,4.3,2.8,8.2,6.9,9.5c4.1,1.3,8.6-0.1,11.2-3.6c10-13.6,20.1-23.3,29.9-29c9.6-5.5,21.6-8.2,35.8-8.2
			c18.8,0,32.9,5.8,43.3,17.6l0,0c10.5,12.1,15.9,31.8,15.9,58.5L190.3,438.2L190.3,438.2z"/>
	</g>
</g>
<g>
	<g>
		<path class="st0" d="M-57.1,215.7h-72.8c-5.5,0-10,4.5-10,10V309c0,5.5,4.5,10,10,10c5.5,0,10-4.5,10-10v-73.3h52.8v202.5h-52.8
			V394c0-5.5-4.5-10-10-10c-5.5,0-10,4.5-10,10v54.2c0,5.5,4.5,10,10,10h72.8c5.5,0,10-4.5,10-10V225.7
			C-47.1,220.2-51.6,215.7-57.1,215.7z"/>
	</g>
</g>
<g>
	<g>
		<path class="st0" d="M-122.9,346.9c-1.9-1.9-4.4-2.9-7.1-2.9c-2.6,0-5.2,1.1-7.1,2.9c-1.9,1.9-2.9,4.4-2.9,7.1s1.1,5.2,2.9,7.1
			c1.9,1.9,4.4,2.9,7.1,2.9c2.6,0,5.2-1.1,7.1-2.9c1.9-1.9,2.9-4.4,2.9-7.1S-121,348.8-122.9,346.9z"/>
	</g>
</g>
<g>
	<g>
		<path class="st0" d="M-93.5,103.8c-28,0-50.7,22.8-50.7,50.7s22.8,50.7,50.7,50.7s50.7-22.8,50.7-50.7S-65.6,103.8-93.5,103.8z
			 M-93.5,185.2c-16.9,0-30.7-13.8-30.7-30.7s13.8-30.7,30.7-30.7c16.9,0,30.7,13.8,30.7,30.7S-76.6,185.2-93.5,185.2z"/>
	</g>
</g>
<g>
	<g>
		<path class="st0" d="M165.6,73H84.1c-5.5,0-10,4.5-10,10s4.5,10,10,10h81.5c5.5,0,10-4.5,10-10S171.2,73,165.6,73z"/>
	</g>
</g>
<g>
	<g>
		<path class="st0" d="M38.8,73h-0.1c-5.5,0-10,4.5-10,10s4.5,10,10,10h0.1c5.5,0,10-4.5,10-10S44.3,73,38.8,73z"/>
	</g>
</g>
</svg>
