<?xml version="1.0" encoding="utf-8"?>
<!-- Generator: Adobe Illustrator 19.0.0, SVG Export Plug-In . SVG Version: 6.00 Build 0)  -->
<svg version="1.1" id="Capa_1" xmlns="http://www.w3.org/2000/svg" xmlns:xlink="http://www.w3.org/1999/xlink" x="0px" y="0px"
	 viewBox="-223 25 512 512" style="enable-background:new -223 25 512 512;" xml:space="preserve">
<style type="text/css">
	.st0{fill:#FFFFFF;}
</style>
<g>
	<g>
		<path class="st0" d="M35.5,96l-0.7,0c0,0,0,0,0,0c-5.5,0-10,4.5-10,10c0,0,0,0,0,0c0,5.5,4.5,10,10,10l0.7,0c0,0,0,0,0,0
			c5.5,0,10-4.5,10-10c0,0,0,0,0,0C45.5,100.5,41,96,35.5,96z"/>
	</g>
</g>
<g>
	<g>
		<path class="st0" d="M278.4,158.1c-6.6-25-25.9-44.6-50.5-51.3c-25.4-6.9-96.1-9.5-151-10.4c-5.5-0.1-10.1,4.3-10.2,9.8
			s4.3,10.1,9.8,10.2c76,1.3,127.8,4.7,146.1,9.7c17.7,4.8,31.7,19,36.5,37.1c9.8,37.3,10,117,10,117.8c0,0.8-0.1,80.5-10,117.8
			c-4.8,18.1-18.7,32.3-36.5,37.1C185.9,445.9,34.5,446,33,446s-152.9-0.1-189.6-10.1c-17.7-4.8-31.7-19-36.4-37.1
			c-9.8-37.3-9.9-117-9.9-117.8c0-0.8,0.1-80.5,10-117.8c4.8-18.1,18.7-32.3,36.5-37.1c18.6-5.1,72.1-8.5,150.4-9.7
			c5.5-0.1,9.9-4.6,9.8-10.2c-0.1-5.5-4.6-9.9-10.2-9.8c-56.6,0.9-129.4,3.4-155.3,10.4c-24.6,6.7-44,26.3-50.5,51.3
			C-222.9,197.9-223,277.6-223,281s0.1,83.1,10.6,122.9c6.6,25,25.9,44.6,50.5,51.3C-122.6,465.9,26.7,466,33,466
			s155.6-0.1,194.8-10.8c24.6-6.7,44-26.3,50.5-51.3C288.9,364.1,289,284.4,289,281S288.9,197.9,278.4,158.1z"/>
	</g>
</g>
<g>
	<g>
		<path class="st0" d="M-165,254.5c-5.5,0-10,4.5-10,10V346c0,5.5,4.5,10,10,10s10-4.5,10-10v-81.5C-155,259-159.5,254.5-165,254.5z
			"/>
	</g>
</g>
<g>
	<g>
		<path class="st0" d="M-165,209c-5.5,0-10,4.5-10,10v0.1c0,5.5,4.5,10,10,10s10-4.5,10-10V219C-155,213.5-159.5,209-165,209z"/>
	</g>
</g>
<g>
	<g>
		<path class="st0" d="M114.1,273.9l-124-72c-3.1-1.8-6.9-1.8-10,0s-5,5.1-5,8.7v144c0,3.6,1.9,6.9,5,8.7c1.5,0.9,3.3,1.3,5,1.3
			c1.7,0,3.5-0.5,5-1.4l124-72c3.1-1.8,5-5.1,5-8.6S117.2,275.7,114.1,273.9z M-4.9,337.2V227.9l94.1,54.6L-4.9,337.2z"/>
	</g>
</g>
</svg>
