<?xml version="1.0" encoding="utf-8"?>
<!-- Generator: Adobe Illustrator 19.0.0, SVG Export Plug-In . SVG Version: 6.00 Build 0)  -->
<svg version="1.1" id="Capa_1" xmlns="http://www.w3.org/2000/svg" xmlns:xlink="http://www.w3.org/1999/xlink" x="0px" y="0px"
	 viewBox="-223 25 512 512" style="enable-background:new -223 25 512 512;" xml:space="preserve">
<style type="text/css">
	.st0{fill:#FFFFFF;}
</style>
<g>
	<g>
		<path class="st0" d="M133.2,79.3l-0.1-0.1c-3.9-3.9-10.2-3.9-14.1-0.1c-3.9,3.9-3.9,10.2-0.1,14.2l0.1,0.1c2,2,4.5,3,7.1,3
			c2.5,0,5.1-1,7-2.9C137.1,89.5,137.1,83.2,133.2,79.3z"/>
	</g>
</g>
<g>
	<g>
		<path class="st0" d="M288.9,405.7c-0.8-5.7-4.6-10.5-10.1-12.4l-5.4-1.9c-42-14.8-75.8-44.9-95.2-84.9c-0.7-1.5-1.1-3.2-1.1-4.9
			c0-4.5,2.7-8.5,6.8-10.3l37.6-16c13.9-5.9,20.6-22.2,15-36.2c-5.4-13.4-20.3-20-33.9-15.2c-10.4,3.7-23.7,8.5-31.5,11.3
			c-0.7,0.3-1.5,0.1-2.1-0.4l-0.1-0.1c-0.4-0.3-0.6-0.8-0.6-1.3l0-68.4c0-18.5-4-36.2-11.9-52.7c-2.4-5-8.4-7.1-13.3-4.7
			c-5,2.4-7.1,8.4-4.7,13.3c6.6,13.8,10,28.6,10,44.1l0,68.4c0,6.4,2.8,12.4,7.6,16.6l0.1,0.1c6,5.1,14.4,6.7,21.8,4
			c7.8-2.8,21.1-7.6,31.5-11.3c3.4-1.2,7.2,0.5,8.6,3.9c1.6,4-0.3,8.6-4.3,10.3l-37.6,16c-11.5,4.9-19,16.2-19,28.7
			c0,4.7,1.1,9.4,3.1,13.6c21.1,43.5,57.5,76.6,102.6,93.6c-8.5,4.5-21.6,9.5-39.7,11.8c-9.3,1.2-17.2,7.8-20,16.7l-5.6,17.9
			c0,0-0.1,0.1-0.1,0.1l-31.5-5.8c-15.8-2.9-32,0.3-45.5,9.1l-50.4,32.7c-7.8,5.1-16.9,7.8-26.2,7.8H22.3c-9.3,0-18.4-2.7-26.2-7.8
			l-50.4-32.7c-13.5-8.8-29.7-12-45.5-9.1l-31.5,5.8c0,0-0.1,0-0.1-0.1l-5.6-17.9c-2.8-9-10.7-15.5-20-16.7
			c-18.1-2.3-31.2-7.4-39.7-11.8c45.1-17,81.4-50.1,102.6-93.6c2.1-4.2,3.1-8.9,3.1-13.6c0-12.5-7.4-23.8-19-28.7l-37.6-16
			c-4-1.7-5.9-6.3-4.3-10.3c1.4-3.4,5.2-5.1,8.6-3.9c10.4,3.7,23.7,8.5,31.5,11.3c7.4,2.7,15.8,1.1,21.8-4l0.1-0.1
			c4.9-4.1,7.7-10.2,7.6-16.6l0-68.4c0-27.3,10.6-52.9,29.9-72.2c19.3-19.3,44.9-29.9,72.1-29.9h26.5c16,0,31.3,3.6,45.5,10.7
			c4.9,2.5,10.9,0.5,13.4-4.5s0.5-10.9-4.5-13.4c-17-8.5-35.3-12.8-54.4-12.8H19.7c-32.6,0-63.2,12.7-86.3,35.7
			c-23,23.1-35.7,53.7-35.7,86.3l0,68.4c0,0.5-0.2,1-0.6,1.3l-0.1,0.1c-0.6,0.5-1.4,0.7-2.1,0.4c-7.8-2.8-21.1-7.6-31.5-11.3
			c-13.6-4.9-28.5,1.8-33.9,15.2c-5.7,14,1,30.3,15,36.2l37.6,16c4.1,1.8,6.8,5.8,6.8,10.3c0,1.7-0.4,3.4-1.1,4.9
			c-19.4,40-53.3,70.2-95.2,84.9l-5.4,1.9c-5.4,1.9-9.3,6.7-10.1,12.4c-0.8,5.7,1.7,11.3,6.4,14.6c10.3,7.2,28.6,16.6,56.8,20.2
			c1.6,0.2,3,1.4,3.5,2.9l5.6,17.9c3,9.6,12.8,15.5,22.8,13.7l31.5-5.8c10.8-2,21.8,0.2,31,6.2l50.4,32.7c11.1,7.2,23.9,11,37.1,11
			h21.4c13.2,0,26-3.8,37.1-11l50.4-32.7c9.2-6,20.2-8.2,31-6.2l31.5,5.8c9.9,1.8,19.7-4.1,22.8-13.7l5.6-17.9
			c0.5-1.6,1.9-2.7,3.5-2.9c28.3-3.6,46.5-13,56.8-20.2C287.2,417,289.6,411.4,288.9,405.7z"/>
	</g>
</g>
<g>
	<g>
		<path class="st0" d="M-71.8,353.5c-4.5-3.1-10.8-2-13.9,2.5c-9.6,13.9-21,26.7-33.7,38.1c-2.8,2.5-5.7,4.9-8.6,7.3
			c-4.3,3.5-5,9.8-1.5,14.1c2,2.5,4.9,3.7,7.8,3.7c2.2,0,4.4-0.7,6.3-2.2c3.2-2.5,6.3-5.2,9.4-7.9c13.9-12.4,26.3-26.4,36.9-41.7
			C-66.1,362.9-67.3,356.7-71.8,353.5z"/>
	</g>
</g>
<g>
	<g>
		<path class="st0" d="M-55.7,322.9c-5-2.4-10.9-0.3-13.4,4.6c0,0,0,0.1-0.1,0.1c-2.4,5-0.3,10.9,4.7,13.3c1.4,0.7,2.9,1,4.3,1
			c3.7,0,7.3-2.1,9-5.6c0,0,0-0.1,0.1-0.1C-48.6,331.2-50.7,325.3-55.7,322.9z"/>
	</g>
</g>
</svg>
