<?xml version="1.0" encoding="utf-8"?>
<!-- Generator: Adobe Illustrator 19.0.0, SVG Export Plug-In . SVG Version: 6.00 Build 0)  -->
<svg version="1.1" id="Capa_1" xmlns="http://www.w3.org/2000/svg" xmlns:xlink="http://www.w3.org/1999/xlink" x="0px" y="0px"
	 viewBox="-223 25 512 512" style="enable-background:new -223 25 512 512;" xml:space="preserve">
<style type="text/css">
	.st0{fill:#FFFFFF;}
</style>
<g>
	<g>
		<path class="st0" d="M139,25H-73c-82.7,0-150,67.3-150,150v212c0,82.7,67.3,150,150,150h212c82.7,0,150-67.3,150-150V175
			C289,92.3,221.7,25,139,25z M269,387c0,71.7-58.3,130-130,130H-73c-71.7,0-130-58.3-130-130V175c0-71.7,58.3-130,130-130h212
			c71.7,0,130,58.3,130,130V387z"/>
	</g>
</g>
<g>
	<g>
		<path class="st0" d="M139,69H-73c-58.4,0-106,47.6-106,106v212c0,58.4,47.6,106,106,106h61c5.5,0,10-4.5,10-10s-4.5-10-10-10h-61
			c-47.4,0-86-38.6-86-86V175c0-47.4,38.6-86,86-86h212c47.4,0,86,38.6,86,86v212c0,47.4-38.6,86-86,86H78.7c-5.5,0-10,4.5-10,10
			s4.5,10,10,10H139c58.4,0,106-47.6,106-106V175C245,116.6,197.4,69,139,69z"/>
	</g>
</g>
<g>
	<g>
		<path class="st0" d="M40.1,475.9c-1.9-1.9-4.4-2.9-7.1-2.9s-5.2,1.1-7.1,2.9S23,480.4,23,483s1.1,5.2,2.9,7.1s4.4,2.9,7.1,2.9
			s5.2-1.1,7.1-2.9c1.9-1.9,2.9-4.4,2.9-7.1S41.9,477.8,40.1,475.9z"/>
	</g>
</g>
<g>
	<g>
		<path class="st0" d="M-47.2,180.7c-3.8-4-10.1-4.2-14.1-0.5l-0.4,0.4c-4,3.8-4.2,10.1-0.4,14.1c2,2.1,4.6,3.1,7.3,3.1
			c2.5,0,4.9-0.9,6.9-2.7l0.4-0.4C-43.6,191.1-43.4,184.7-47.2,180.7z"/>
	</g>
</g>
<g>
	<g>
		<path class="st0" d="M33,143c-22,0-43.8,5.3-63.2,15.3c-4.9,2.5-6.8,8.6-4.3,13.5c2.5,4.9,8.6,6.8,13.5,4.3
			c16.8-8.7,35-13.1,54-13.1c65.1,0,118,52.9,118,118S98.1,399,33,399S-85,346.1-85,281c0-20.4,5.3-40.5,15.3-58.2
			c2.7-4.8,1-10.9-3.8-13.6c-4.8-2.7-10.9-1-13.6,3.8C-98.8,233.6-105,257.1-105,281c0,76.1,61.9,138,138,138s138-61.9,138-138
			S109.1,143,33,143z"/>
	</g>
</g>
<g>
	<g>
		<path class="st0" d="M33,191c-49.6,0-90,40.4-90,90s40.4,90,90,90s90-40.4,90-90S82.6,191,33,191z M33,351c-38.6,0-70-31.4-70-70
			s31.4-70,70-70s70,31.4,70,70S71.6,351,33,351z"/>
	</g>
</g>
<g>
	<g>
		<path class="st0" d="M164.3,111.8c-21,0-38,17-38,38s17,38,38,38s38-17,38-38S185.2,111.8,164.3,111.8z M164.3,167.8
			c-9.9,0-18-8.1-18-18s8.1-18,18-18s18,8.1,18,18S174.2,167.8,164.3,167.8z"/>
	</g>
</g>
</svg>
