<?xml version="1.0" encoding="utf-8"?>
<!-- Generator: Adobe Illustrator 19.0.0, SVG Export Plug-In . SVG Version: 6.00 Build 0)  -->
<svg version="1.1" id="Calque_1" xmlns="http://www.w3.org/2000/svg" xmlns:xlink="http://www.w3.org/1999/xlink" x="0px" y="0px"
	 viewBox="0 0 60 60" style="enable-background:new 0 0 60 60;" xml:space="preserve">
<style type="text/css">
	.st0{clip-path:url(#SVGID_2_);}
</style>
<g>
	<g>
		<defs>
			<rect id="SVGID_1_" x="4.4" y="4.4" width="51.1" height="51.2"/>
		</defs>
		<clipPath id="SVGID_2_">
			<use xlink:href="#SVGID_1_"  style="overflow:visible;"/>
		</clipPath>
		<path class="st0" d="M48,48c10-10,10-26.1,0-36.1c-10-10-26.1-10-36.1,0c-10,10-10,26.1,0,36.1C21.9,58,38.1,58,48,48L48,48z
			 M13.7,13.7c9-9,23.5-9,32.5,0c9,9,9,23.5,0,32.5c-9,9-23.5,9-32.5,0C4.7,37.3,4.8,22.7,13.7,13.7L13.7,13.7z M13.7,13.7"/>
	</g>
	<path d="M30,39.5c0.4,0,0.7-0.1,0.9-0.4c0.2-0.2,0.4-0.6,0.4-0.9v-7h7c0.4,0,0.7-0.1,0.9-0.4c0.2-0.2,0.4-0.6,0.4-0.9
		c0-0.7-0.6-1.3-1.3-1.3h-7v-7c0-0.7-0.6-1.3-1.3-1.3c-0.7,0-1.3,0.6-1.3,1.3v7h-7c-0.7,0-1.3,0.6-1.3,1.3c0,0.7,0.6,1.3,1.3,1.3h7
		v7C28.7,39,29.2,39.5,30,39.5L30,39.5z M30,39.5"/>
</g>
</svg>
