<?xml version="1.0" encoding="utf-8"?>
<!-- Generator: Adobe Illustrator 19.0.0, SVG Export Plug-In . SVG Version: 6.00 Build 0)  -->
<svg version="1.1" id="Capa_1" xmlns="http://www.w3.org/2000/svg" xmlns:xlink="http://www.w3.org/1999/xlink" x="0px" y="0px"
	 viewBox="-223 25 512 512" style="enable-background:new -223 25 512 512;" xml:space="preserve">
<style type="text/css">
	.st0{fill:#FFFFFF;}
</style>
<g>
	<g>
		<g>
			<path class="st0" d="M-106.6,209.4c5.5,0,10-4.5,10-10s-4.5-10-10-10h0c-5.5,0-10,4.5-10,10C-116.6,205-112.1,209.4-106.6,209.4z
				"/>
			<path class="st0" d="M224.8,415.2c0.2-11.7-2.3-23.5-7.4-34.1L85.9,106.3C75.9,85.4,56.1,73,32.9,73C9.8,73-9.9,85.4-19.9,106.3
				l-131.5,274.9c-11.2,23.5-9.7,50.7,4.2,72.7c13.9,22,37.7,35.2,63.7,35.2c13.3,0,26.5-3.6,38-10.3c18.1-10.6,34.8-23.6,49.4-38.6
				l3.3-3.3c3.6-3.6,3.8-9.4,0.6-13.3c-19.6-23.9-52.6-71.8-52.6-124.3c0-44.5,34.9-80.7,77.7-80.7c42.9,0,77.9,36.2,77.9,80.7
				c0,52.5-33,100.4-52.6,124.3c-3.2,3.9-3,9.7,0.6,13.3l3.3,3.3c14.7,15,31.3,28,49.4,38.6c11.5,6.7,24.7,10.3,38,10.3
				c10.8,0,21.2-2.2,31-6.6c5-2.3,7.3-8.2,5-13.2c-2.3-5-8.2-7.3-13.2-5c-7.2,3.2-14.8,4.9-22.8,4.9c-9.8,0-19.5-2.6-27.9-7.6
				c-15.4-9-29.6-19.9-42.3-32.3c21.5-27.7,51.5-76.1,51.5-129.9c0-55.5-43.9-100.7-97.9-100.7c-53.9,0-97.7,45.2-97.7,100.7
				c0,53.8,30.1,102.2,51.5,129.9c-12.7,12.5-26.9,23.4-42.3,32.3c-8.5,4.9-18.1,7.6-27.9,7.6c-19.1,0-36.6-9.7-46.8-25.8
				c-10.2-16.2-11.4-36.1-3.1-53.4L-1.8,114.9C4.7,101.2,17.7,93,32.9,93c15.3,0,28.3,8.2,34.9,21.9l131.5,274.9
				c3.7,7.8,5.6,16.5,5.5,25.1c-0.1,5.5,4.3,10.1,9.8,10.2C220.1,425.1,224.7,420.8,224.8,415.2z"/>
			<path class="st0" d="M260.7,360.4L129.2,85.6C111.3,48.2,74.4,25,32.9,25c-41.4,0-78.2,23.2-96.1,60.6l-34,71
				c-2.4,5-0.3,11,4.7,13.3c5,2.4,11,0.3,13.3-4.7l34-71.1C-30.6,63.8-0.7,45,32.9,45c33.7,0,63.7,18.8,78.2,49.2l131.5,274.9
				c15.4,32.2,13.3,69.5-5.8,99.7c-19,30.2-51.7,48.3-87.4,48.3c-18.3,0-36.3-4.9-52.1-14.1C77,491,58.4,476.5,42,459.7l-1.9-1.9
				c-1.9-1.9-4.5-3-7.2-3s-5.3,1.1-7.2,3l-1.9,1.9C7.6,476.5-11,491-31.3,502.9c-15.8,9.2-33.8,14.1-52.1,14.1
				c-35.7,0-68.4-18-87.4-48.3c-19-30.2-21.2-67.5-5.8-99.7l58.8-122.9c2.4-5,0.3-11-4.7-13.3c-5-2.4-11-0.3-13.3,4.7l-58.8,122.9
				c-18.4,38.4-15.8,82.9,6.9,119c22.7,36.1,61.7,57.6,104.4,57.6c21.8,0,43.4-5.8,62.2-16.9C-1.6,508.6,16.7,494.8,33,479
				c16.3,15.9,34.6,29.7,54.2,41.2c18.9,11,40.4,16.9,62.2,16.9c42.6,0,81.6-21.5,104.4-57.6C276.5,443.3,279.1,398.9,260.7,360.4z"
				/>
			<path class="st0" d="M32.9,246.5c-27.4,0-49.7,23.6-49.7,52.7c0,41.1,26.2,81,41.8,101.2c1.9,2.4,4.8,3.9,7.9,3.9c0,0,0,0,0,0
				c3.1,0,6-1.4,7.9-3.8c19.2-24.5,42-61.9,42-101.2C82.8,270.1,60.4,246.5,32.9,246.5z M33,377.3c-12.6-18.3-29.8-48.6-29.8-78.2
				c0-18,13.3-32.7,29.7-32.7c16.5,0,29.9,14.6,29.9,32.7C62.8,328.5,46.6,357.9,33,377.3z"/>
			<path class="st0" d="M210.1,440c-4.7-2.9-10.8-1.5-13.8,3.1l-0.3,0.4c-3,4.6-1.7,10.8,3,13.8c1.7,1.1,3.6,1.6,5.4,1.6
				c3.3,0,6.5-1.6,8.4-4.6l0.4-0.6C216.2,449.1,214.7,443,210.1,440z"/>
		</g>
	</g>
</g>
</svg>
