<?xml version="1.0" encoding="utf-8"?>
<!-- Generator: Adobe Illustrator 19.0.0, SVG Export Plug-In . SVG Version: 6.00 Build 0)  -->
<svg version="1.1" id="Capa_1" xmlns="http://www.w3.org/2000/svg" xmlns:xlink="http://www.w3.org/1999/xlink" x="0px" y="0px"
	 viewBox="-223 25 512 512" style="enable-background:new -223 25 512 512;" xml:space="preserve">
<style type="text/css">
	.st0{fill:#FFFFFF;}
</style>
<g>
	<g>
		<g>
			<path class="st0" d="M-148.3,259.8h63.7c27.2,0,45.6-16.8,45.6-41.9c0-24.7-18.7-41.9-45.6-41.9h-63.7c-5.5,0-10,4.5-10,10v63.8
				C-158.3,255.3-153.8,259.8-148.3,259.8z M-138.3,196h53.7c15.8,0,25.6,8.4,25.6,21.9c0,19.8-17.9,21.9-25.6,21.9h-53.7V196z"/>
			<path class="st0" d="M-81.8,296.8h-66.5c-5.5,0-10,4.5-10,10V376c0,5.5,4.5,10,10,10h66.5c14.4,0,26.5-4,35.1-11.6
				c8.9-7.9,13.7-19.4,13.7-33C-33.1,315.1-53.1,296.8-81.8,296.8z M-81.8,366h-56.5v-49.3h56.5c17.7,0,28.7,9.4,28.7,24.6
				C-53.1,361.8-68.7,366-81.8,366z"/>
			<path class="st0" d="M-8.1,275.5c6.6-4.3,12.5-9.7,17.5-16C21,245,27.1,226.7,27.1,206.5c0-23.6-8.9-45.3-25.1-61.1
				C-15.7,128.1-40.7,119-70.4,119H-213c-5.5,0-10,4.5-10,10v304c0,5.5,4.5,10,10,10h147.6c30.3,0,55.6-9.3,73.2-26.9
				C24.3,399.5,33,376.8,33,350.5C33,318.5,16.5,290-8.1,275.5z M-65.4,423H-203V139h132.6c53.5,0,77.5,33.9,77.5,67.5
				c0,35.1-22.3,55.4-44.4,59.9c-4.7,1-8.1,5.2-8,10.1c0.1,4.8,3.7,8.9,8.5,9.6c28.4,4.3,49.9,32,49.9,64.4
				C13,395.2-17,423-65.4,423z"/>
		</g>
	</g>
</g>
<g>
	<g>
		<path class="st0" d="M230.9,127h-122c-5.5,0-10,4.5-10,10v32c0,5.5,4.5,10,10,10h122c5.5,0,10-4.5,10-10v-32
			C240.9,131.5,236.4,127,230.9,127z M220.9,159h-102v-12h102V159z"/>
	</g>
</g>
<g>
	<g>
		<g>
			<path class="st0" d="M70.7,318.5v-0.2c0-5.5-4.5-10-10-10s-10,4.5-10,10v0.2c0,5.5,4.5,10,10,10S70.7,324,70.7,318.5z"/>
			<path class="st0" d="M257.5,226.3c-22-23.9-52.1-36.1-89.6-36.1c-33.6,0-61.9,11.6-84,34.4c-14,14.5-23.7,32.7-28.8,54
				c-1.3,5.4,2,10.8,7.4,12c5.4,1.3,10.8-2,12-7.4c4.3-17.8,12.2-32.9,23.7-44.8c18.5-19,41.2-28.3,69.6-28.3
				c32.1,0,56.6,9.7,74.9,29.6c16.8,18.3,25.6,46.4,26.2,83.8H124.1c-2.7,0-5.3,1.1-7.2,3s-2.9,4.5-2.8,7.2c0.5,20,6.5,36,17.8,47.5
				c11.4,11.7,25.8,17.6,42.8,17.6c11.9,0,22.1-3.2,30.5-9.6c3.5-2.6,6.6-5.9,9.3-9.8h44.4c-6.7,11.6-15.5,21.1-26.2,28.2
				C217.3,417.9,197.6,423,174,423c-37.7,0-64.6-11.1-82.2-34c-7.5-9.8-13-21.2-16.5-33.9c-1.5-5.3-7-8.5-12.3-7
				c-5.3,1.5-8.5,7-7,12.3c4.2,15.1,10.8,28.8,19.9,40.8C97.3,428.9,130.3,443,174,443c27.5,0,51-6.2,69.6-18.5
				c13.4-8.8,24.3-20.6,32.6-35c2.9-5.1,5.4-10.6,7.6-16.3c1.1-3.1,0.7-6.5-1.2-9.2c-1.9-2.7-4.9-4.3-8.2-4.3h-65.6
				c-3.6,0-7,2-8.8,5.2c-2.1,3.7-4.5,6.6-7.1,8.7c-4.9,3.7-10.9,5.5-18.4,5.5c-11.5,0-20.9-3.8-28.5-11.6c-5.9-6-9.6-13.8-11.2-23.8
				h144c5.4,0,9.9-4.4,10-9.8C289.9,286.2,279.3,250,257.5,226.3z"/>
			<path class="st0" d="M125.2,307.5h92.4c2.7,0,5.3-1.1,7.2-3c1.9-1.9,2.9-4.5,2.8-7.2c-0.5-19.6-6.1-35-16.8-45.7
				c-10.7-10.8-23.9-16.3-39.2-16.3c-16.3,0-30,5.8-40.7,17.2v0c-10.6,11.3-15.9,26.4-15.7,45.1
				C115.2,303.1,119.7,307.5,125.2,307.5z M145.4,266.2c6.9-7.3,15.4-10.9,26.2-10.9c9.9,0,18.1,3.4,25,10.4
				c5.1,5.2,8.5,12.5,10,21.9h-70.9C137,278.8,140.2,271.8,145.4,266.2z"/>
		</g>
	</g>
</g>
<g>
	<g>
		<path class="st0" d="M-181,264c-5.5,0-10,4.5-10,10v81.5c0,5.5,4.5,10,10,10s10-4.5,10-10V274C-171,268.5-175.5,264-181,264z"/>
	</g>
</g>
<g>
	<g>
		<path class="st0" d="M-181,218.5c-5.5,0-10,4.5-10,10v0.1c0,5.5,4.5,10,10,10s10-4.5,10-10v-0.1C-171,223-175.5,218.5-181,218.5z"
			/>
	</g>
</g>
</svg>
