<?xml version="1.0" encoding="utf-8"?>
<!-- Generator: Adobe Illustrator 19.0.0, SVG Export Plug-In . SVG Version: 6.00 Build 0)  -->
<svg version="1.1" id="Calque_1" xmlns="http://www.w3.org/2000/svg" xmlns:xlink="http://www.w3.org/1999/xlink" x="0px" y="0px"
	 viewBox="-219 221 60 60" style="enable-background:new -219 221 60 60;" xml:space="preserve">
<style type="text/css">
	.st0{fill:#FFFFFF;}
</style>
<g>
	<path class="st0" d="M-189,229.8c-11.7,0-21.2,9.5-21.2,21.2c0,11.7,9.5,21.2,21.2,21.2s21.2-9.5,21.2-21.2
		C-167.8,239.3-177.3,229.8-189,229.8L-189,229.8z M-189,270c-10.5,0-19-8.5-19-19s8.5-19,19-19s19,8.5,19,19S-178.5,270-189,270
		L-189,270z"/>
	<path class="st0" d="M-185,244.3c-0.2-0.2-0.5-0.3-0.8-0.3s-0.5,0.1-0.8,0.3c-0.4,0.4-0.4,1.1,0,1.5l4.1,4.1h-15.7
		c-0.6,0-1.1,0.5-1.1,1.1s0.5,1.1,1.1,1.1h15.8l-4.1,4.1c-0.4,0.4-0.4,1.1,0,1.5c0.4,0.4,1.1,0.4,1.5,0l5.9-5.9
		c0.4-0.4,0.4-1.1,0-1.5L-185,244.3z"/>
</g>
</svg>
