<?xml version="1.0" encoding="utf-8"?>
<!-- Generator: Adobe Illustrator 19.0.0, SVG Export Plug-In . SVG Version: 6.00 Build 0)  -->
<svg version="1.1" id="Calque_1" xmlns="http://www.w3.org/2000/svg" xmlns:xlink="http://www.w3.org/1999/xlink" x="0px" y="0px"
	 viewBox="0 0 60 60" style="enable-background:new 0 0 60 60;" xml:space="preserve">
<style type="text/css">
	.st0{fill:#FFFFFF;}
</style>
<g>
	<path class="st0" d="M30,56.2c14.4,0,26.2-11.7,26.2-26.2S44.4,3.8,30,3.8S3.8,15.6,3.8,30S15.6,56.2,30,56.2L30,56.2z M30,6.5
		C43,6.5,53.5,17,53.5,30C53.5,43,43,53.5,30,53.5C17,53.5,6.5,43,6.5,30C6.5,17,17,6.5,30,6.5L30,6.5z M30,6.5"/>
	<path class="st0" d="M23.1,36.9c0.3,0.3,0.6,0.4,0.9,0.4c0.3,0,0.7-0.1,0.9-0.4l5.1-5.1l5.1,5.1c0.3,0.3,0.6,0.4,0.9,0.4
		c0.3,0,0.7-0.1,0.9-0.4c0.5-0.5,0.5-1.3,0-1.8L31.8,30l5.1-5.1c0.5-0.5,0.5-1.3,0-1.8c-0.5-0.5-1.3-0.5-1.8,0L30,28.2l-5.1-5.1
		c-0.5-0.5-1.3-0.5-1.8,0c-0.5,0.5-0.5,1.3,0,1.8l5.1,5.1l-5.1,5.1C22.6,35.6,22.6,36.4,23.1,36.9L23.1,36.9z M23.1,36.9"/>
</g>
</svg>
