<?xml version="1.0" encoding="utf-8"?>
<!-- Generator: Adobe Illustrator 19.0.0, SVG Export Plug-In . SVG Version: 6.00 Build 0)  -->
<svg version="1.1" id="Capa_1" xmlns="http://www.w3.org/2000/svg" xmlns:xlink="http://www.w3.org/1999/xlink" x="0px" y="0px"
	 viewBox="-223 25 512 512" style="enable-background:new -223 25 512 512;" xml:space="preserve">
<style type="text/css">
	.st0{fill:#FFFFFF;}
</style>
<g>
	<g>
		<path class="st0" d="M-90,274c-16.5,0-30,13.5-30,30c0,16.5,13.5,30,30,30c16.5,0,30-13.5,30-30C-60,287.5-73.5,274-90,274z
			 M-90,314c-5.5,0-10-4.5-10-10s4.5-10,10-10c5.5,0,10,4.5,10,10S-84.5,314-90,314z"/>
	</g>
</g>
<g>
	<g>
		<path class="st0" d="M-90,238c-36.4,0-66,29.6-66,66c0,36.4,29.6,66,66,66c36.4,0,66-29.6,66-66S-53.6,238-90,238z M-90,350
			c-25.4,0-46-20.6-46-46s20.6-46,46-46s46,20.6,46,46S-64.6,350-90,350z"/>
	</g>
</g>
<g>
	<g>
		<path class="st0" d="M156,274c-16.5,0-30,13.5-30,30c0,16.5,13.5,30,30,30c16.5,0,30-13.5,30-30C186,287.5,172.5,274,156,274z
			 M156,314c-5.5,0-10-4.5-10-10s4.5-10,10-10s10,4.5,10,10S161.5,314,156,314z"/>
	</g>
</g>
<g>
	<g>
		<path class="st0" d="M156,238c-36.4,0-66,29.6-66,66c0,36.4,29.6,66,66,66c36.4,0,66-29.6,66-66C222,267.6,192.4,238,156,238z
			 M156,350c-25.4,0-46-20.6-46-46s20.6-46,46-46s46,20.6,46,46S181.3,350,156,350z"/>
	</g>
</g>
<g>
	<g>
		<path class="st0" d="M250.8,383c-3.9-3.9-10.3-3.8-14.1,0.1c-0.3,0.3-0.5,0.5-0.8,0.8c-3.9,3.9-3.9,10.2,0,14.1
			c2,2,4.5,2.9,7.1,2.9c2.6,0,5.1-1,7.1-2.9c0.3-0.3,0.6-0.6,0.9-1C254.8,393.2,254.8,386.8,250.8,383z"/>
	</g>
</g>
<g>
	<g>
		<path class="st0" d="M286.9,280.3c-3.5-19.5-11.3-37.6-22.6-53.5l23.3-37.4c1.9-3.1,2-7,0.2-10.1c-1.8-3.2-5.1-5.1-8.7-5.1h-91.6
			c-31.2-23.6-69.9-39.5-112.1-45.9c-5.5-0.8-10.6,2.9-11.4,8.4c-0.8,5.5,2.9,10.6,8.4,11.4c26.5,4,51.3,12,73.5,23.5
			c-31.7,2.4-61.1,15.9-83.8,38.6c-12.6,12.6-22.4,27.3-29,43.4c-18.7-45.3-61.7-78-112.7-81.9c22.2-11.5,47-19.5,73.5-23.5
			c5.5-0.8,9.2-5.9,8.4-11.4c-0.8-5.5-5.9-9.2-11.4-8.4c-42.3,6.4-80.9,22.3-112.1,45.9H-213c-3.6,0-7,2-8.7,5.1
			c-1.8,3.2-1.7,7.1,0.2,10.1l23.3,37.5c-15.6,21.8-24.8,48.5-24.8,77.3c0,73.3,59.7,133,133,133c37.5,0,71.3-15.6,95.5-40.6
			L24.8,425c1.9,2.7,5,4.4,8.3,4.4s6.4-1.6,8.3-4.4l19.2-28.3c0.5,0.5,0.9,0.9,1.4,1.4c25.4,25.4,59.7,38.9,94.3,38.9
			c18.9,0,37.9-4,55.7-12.3c5-2.3,7.2-8.3,4.9-13.3c-2.3-5-8.3-7.2-13.3-4.9c-42.8,19.9-94.1,10.8-127.5-22.6
			c-2.9-2.9-5.7-6-8.3-9.2c-0.3-0.4-0.6-0.8-1-1.2C51.4,353.7,43,329.5,43,304c0-30.2,11.8-58.6,33.1-79.9
			C97.4,202.8,125.8,191,156,191s58.6,11.8,79.9,33.1c3,3,5.7,6,8.3,9.2c0.1,0.2,0.3,0.4,0.5,0.6c25.8,32.5,31.9,76.4,15,115.2
			c-2.2,5.1,0.1,11,5.2,13.2c5.1,2.2,11-0.1,13.2-5.2C288.5,332.9,291.6,306.3,286.9,280.3z M-164.7,194c-7.2,4.9-13.9,10.5-20,16.7
			L-195,194H-164.7z M-90,417c-62.3,0-113-50.7-113-113s50.7-113,113-113S23,241.7,23,304S-27.7,417-90,417z M47.2,380.6l-14.1,20.9
			l-14.3-21.1c5.6-8,10.4-16.6,14.1-25.7C36.7,363.8,41.5,372.5,47.2,380.6z M250.7,210.6c-0.2-0.2-0.4-0.4-0.6-0.7
			c-6-6-12.4-11.3-19.2-16H261L250.7,210.6z"/>
	</g>
</g>
<g>
	<g>
		<path class="st0" d="M33.6,125l-0.6,0c-5.5,0-10,4.5-10,10s4.5,10,10,10l0.5,0c0,0,0,0,0.1,0c5.5,0,10-4.4,10-9.9
			C43.6,129.5,39.1,125,33.6,125z"/>
	</g>
</g>
</svg>
