<?xml version="1.0" encoding="utf-8"?>
<!-- Generator: Adobe Illustrator 19.0.0, SVG Export Plug-In . SVG Version: 6.00 Build 0)  -->
<svg version="1.1" id="Capa_1" xmlns="http://www.w3.org/2000/svg" xmlns:xlink="http://www.w3.org/1999/xlink" x="0px" y="0px"
	 viewBox="-223 25 512 512" style="enable-background:new -223 25 512 512;" xml:space="preserve">
<style type="text/css">
	.st0{fill:#FFFFFF;}
</style>
<g>
	<g>
		<path class="st0" d="M265.7,79.5c-13.8-14.9-33.6-22.9-58.7-23.6C143.1,53.8,96.6,85,68.6,148.6c-3.8,8.6-2.7,18.3,2.8,25.8
			c5.6,7.7,14.7,11.6,24.2,10.5c2.6-0.3,5.3-0.4,7.9-0.4c8.8,0,15.2,2,18.8,6.1c4.4,4.9,6,13.4,4.7,25.5c0,0.1,0,0.1,0,0.2
			c-1.4,15.5-12.1,39.3-31.9,70.7c-3.1,4.9-5.9,9.4-8.4,13.5c-14.6,23.7-19.7,31.2-30,31.2c-11.1,0-19.8-35.2-27-68.2
			c0-0.1,0-0.2-0.1-0.3C26,248.8,19.3,210.8,9.7,150c-4.8-30.6-13.6-52.6-27-67.5C-31.3,66.8-49.9,60-72.4,62.2
			c-11.9,1.1-26.2,7.5-44,19.5c-4.6,3.1-5.8,9.3-2.7,13.9c3.1,4.6,9.3,5.8,13.9,2.7c18.3-12.4,28.9-15.6,34.6-16.2
			c16.1-1.6,28.7,3,38.4,13.8c10.5,11.7,18,31,22.1,57.2c9.8,62,16.4,99.6,20.2,114.8c11.1,50.6,20.4,83.7,46.5,83.7
			c21.9,0,31.4-15.3,47-40.7c2.6-4.2,5.2-8.5,8.2-13.3c21.8-34.5,33.3-60.5,34.9-79.5c1.9-17.9-1.4-31.7-9.7-40.9
			c-7.6-8.4-18.9-12.7-33.7-12.7c-3.3,0-6.7,0.2-10.1,0.6c-3.3,0.4-5.2-1.6-5.8-2.5c-0.8-1-1.9-3.2-0.6-5.9
			c24.7-56.1,63.7-82.6,119.4-80.8c19.9,0.6,34.5,6.2,44.7,17.2c13.3,14.3,19.3,38.5,17.8,71.8c-0.3,5.5,4,10.2,9.5,10.4
			c5.5,0.2,10.2-4,10.4-9.5C290.5,127,282.8,97.9,265.7,79.5z"/>
	</g>
</g>
<g>
	<g>
		<path class="st0" d="M-137.7,110.1c-3.7-4.1-10.1-4.3-14.1-0.6l0,0c-4.1,3.7-4.5,10-0.8,14.1c2,2.2,4.7,3.4,7.5,3.4
			c2.4,0,4.7-0.8,6.6-2.5l0.3-0.2C-134.3,120.5-134,114.1-137.7,110.1z"/>
	</g>
</g>
<g>
	<g>
		<path class="st0" d="M279.2,155.4c-5.5-0.3-10.2,4-10.4,9.5c-2.4,53.4-36.7,126.5-94.1,200.5c-33.6,43.7-62.2,74.3-87.6,93.4
			c-24.7,18.7-46.9,27.4-69.9,27.4c-23.6,0-55.9-22.7-74.9-73.4c-8.1-29.8-16.2-59.7-24.4-89.5l-15.6-57.4
			c-16.6-59.8-34.9-87.6-57.5-87.6c-4.3,0-9.8,1.4-34.9,18.5c-1.1,0.7-2.6,0.5-3.4-0.5l-9-11.6c-0.8-1-0.7-2.5,0.3-3.4
			c9.7-8.6,19.3-17.1,28.4-25.3c4.1-3.7,4.5-10,0.8-14.1c-3.7-4.1-10-4.5-14.1-0.8c-9.1,8.2-18.7,16.6-28.3,25.2
			c-8.9,7.8-10.1,21.3-2.9,30.6l9,11.6c7.3,9.4,20.6,11.5,30.4,4.8c16.7-11.4,22.6-14.3,24.4-15c4.3,0.7,19.4,8,37.4,72.9l15.6,57.3
			c8.2,30,16.3,60,24.5,90c0.1,0.3,0.2,0.6,0.3,0.9c9.9,26.6,24.3,48.8,41.6,64.2c16.3,14.6,34.9,22.6,52.2,22.6
			c53,0,103.2-37.3,173.3-128.6c59.8-77.1,95.7-154.3,98.3-211.8C289,160.3,284.7,155.6,279.2,155.4z"/>
	</g>
</g>
<g>
	<g>
		<path class="st0" d="M214,227.9c-5-2.3-11,0-13.2,5l-0.4,0.8c-2.3,5,0,11,5,13.2c1.3,0.6,2.7,0.9,4.1,0.9c3.8,0,7.5-2.2,9.1-5.9
			l0.4-0.9C221.3,236,219,230.1,214,227.9z"/>
	</g>
</g>
<g>
	<g>
		<path class="st0" d="M196.7,263.7c-4.8-2.7-10.9-1.1-13.6,3.7c-12.6,22.1-28.2,45.1-46.3,68.4l-0.2,0.3c-3.3,4.4-2.5,10.7,1.9,14
			c1.8,1.4,3.9,2,6,2c3,0,6-1.4,8-4l0.1-0.1c18.7-24.1,34.8-47.9,47.9-70.8C203.2,272.6,201.5,266.5,196.7,263.7z"/>
	</g>
</g>
</svg>
