<?xml version="1.0" encoding="utf-8"?>
<!-- Generator: Adobe Illustrator 19.0.0, SVG Export Plug-In . SVG Version: 6.00 Build 0)  -->
<svg version="1.1" id="Capa_1" xmlns="http://www.w3.org/2000/svg" xmlns:xlink="http://www.w3.org/1999/xlink" x="0px" y="0px"
	 viewBox="-223 25 512 512" style="enable-background:new -223 25 512 512;" xml:space="preserve">
<style type="text/css">
	.st0{fill:#FFFFFF;}
</style>
<g>
	<g>
		<path class="st0" d="M33,400.3c-5.5,0-10,4.5-10,10c0,0,0,0,0,0s0,0,0,0v0.1c0,5.5,4.5,10,10,10c5.5,0,10-4.5,10-10c0,0,0,0,0,0
			s0,0,0,0s0,0,0,0s0,0,0,0C43,404.8,38.5,400.3,33,400.3z"/>
	</g>
</g>
<g>
	<g>
		<path class="st0" d="M191,25h-316c-54,0-98,44-98,98v316c0,54,44,98,98,98H33c5.5,0,10-4.5,10-10v-77.5c0-5.5-4.5-10-10-10
			s-10,4.5-10,10V517h-148c-43,0-78-35-78-78V123c0-43,35-78,78-78h316c43,0,78,35,78,78v316c0,43-35,78-78,78h-64V340.5h58
			c5.1,0,9.4-3.9,10-9l7.2-71.5c0.3-2.8-0.6-5.6-2.5-7.7s-4.6-3.3-7.4-3.3H127v-37.5c0-6.8,2.2-9.3,8-9.3h56.7c5.5,0,10-4.5,10-10
			v-69.7c0-5.5-4.5-10-10-10h-74.5c-42.2,0-64.6,18.5-76,34.1C25.4,168.4,23,194.1,23,207.5v42h-49c-5.5,0-10,4.5-10,10v71
			c0,5.5,4.5,10,10,10h49V369c0,5.5,4.5,10,10,10s10-4.5,10-10v-38.5c0-5.5-4.5-10-10-10h-49v-51h49c5.5,0,10-4.5,10-10v-52
			c0-22.5,7.2-74.9,74.2-74.9h64.5v49.7H135c-12.9,0-28,7.7-28,29.3V259c0,5.5,4.5,10,10,10h64.1l-5.2,51.5H117c-5.5,0-10,4.5-10,10
			V527c0,5.5,4.5,10,10,10h74c54,0,98-44,98-98V123C289,69,245,25,191,25z"/>
	</g>
</g>
<g>
	<g>
		<path class="st0" d="M-165,127.5c-5.5,0-10,4.5-10,10V221c0,5.5,4.5,10,10,10s10-4.5,10-10v-83.5C-155,132-159.5,127.5-165,127.5z
			"/>
	</g>
</g>
<g>
	<g>
		<path class="st0" d="M-165,254.4c-5.5,0-10,4.5-10,10v0.1c0,5.5,4.5,10,10,10s10-4.5,10-10v-0.1C-155,258.9-159.5,254.4-165,254.4
			z"/>
	</g>
</g>
</svg>
