<?xml version="1.0" encoding="utf-8"?>
<!-- Generator: Adobe Illustrator 19.0.0, SVG Export Plug-In . SVG Version: 6.00 Build 0)  -->
<svg version="1.1" id="Capa_1" xmlns="http://www.w3.org/2000/svg" xmlns:xlink="http://www.w3.org/1999/xlink" x="0px" y="0px"
	 viewBox="-223 25 512 512" style="enable-background:new -223 25 512 512;" xml:space="preserve">
<style type="text/css">
	.st0{fill:#FFFFFF;}
</style>
<g>
	<g>
		<g>
			<path class="st0" d="M-18.4,489.4c-3.9,3.9-4,10.2-0.1,14.1l0.1,0.1c1.9,2,4.5,2.9,7.1,2.9c2.6,0,5.1-1,7.1-2.9
				c3.9-3.9,3.9-10.2,0-14.2C-8.1,485.6-14.4,485.5-18.4,489.4z"/>
			<path class="st0" d="M178,499.4l-23.5-91c-0.9-3.6-3.8-6.5-7.5-7.3c-3.7-0.8-7.4,0.4-9.8,3.3c-2,2-11.9,5.9-23,5.9
				c-16.9,0-23-15.3-23-28.5V252.9h66.9c5.5,0,10-4.5,10-10V138.6c0-5.5-4.5-10-10-10H91.3V35c0-5.5-4.5-10-10-10H-0.3
				c-5.5,0-10,4.5-10,10v1.5c0,50.8-41.3,92.1-92.1,92.1c-5.5,0-10,4.5-10,10v104.4c0,5.5,4.5,10,10,10h52.8v162.6
				c0,19.7,2.9,37.4,8.7,52.7c2,5.2,7.7,7.8,12.9,5.8c5.2-2,7.8-7.7,5.8-12.9c-4.9-13-7.4-28.3-7.4-45.6V242.9c0-5.5-4.5-10-10-10
				h-52.8v-84.8C-38,143.3,5.3,99.5,9.4,45h61.8v93.6c0,5.5,4.5,10,10,10h66.9v84.4H81.3c-5.5,0-10,4.5-10,10v138.9
				c0,28.5,17.7,48.5,43,48.5c7.7,0,16.6-1.4,24.2-4.2l18.7,72.2C146.8,505.8,124,517,78.9,517c-20.8,0-39-3-54-8.8
				c-5.1-2-10.9,0.5-13,5.7c-2,5.1,0.5,10.9,5.7,13c17.3,6.8,38,10.2,61.3,10.2c43.2,0,77.4-9.9,96.3-27.8
				C177.9,506.6,179,502.9,178,499.4z"/>
		</g>
	</g>
</g>
<g>
	<g>
		<path class="st0" d="M34.3,288.1c-5.5,0-10,4.5-10,10v81.5c0,5.5,4.5,10,10,10c5.5,0,10-4.5,10-10v-81.5
			C44.3,292.5,39.8,288.1,34.3,288.1z"/>
	</g>
</g>
<g>
	<g>
		<path class="st0" d="M34.3,242.6c-5.5,0-10,4.5-10,10v0.1c0,5.5,4.5,10,10,10c5.5,0,10-4.5,10-10v-0.1
			C44.3,247,39.8,242.6,34.3,242.6z"/>
	</g>
</g>
</svg>
