<?xml version="1.0" encoding="utf-8"?>
<!-- Generator: Adobe Illustrator 19.0.0, SVG Export Plug-In . SVG Version: 6.00 Build 0)  -->
<svg version="1.1" id="Calque_1" xmlns="http://www.w3.org/2000/svg" xmlns:xlink="http://www.w3.org/1999/xlink" x="0px" y="0px"
	 viewBox="6 -6 60 60" style="enable-background:new 6 -6 60 60;" xml:space="preserve">
<style type="text/css">
	.st0{display:none;}
	.st1{display:inline;}
	.st2{clip-path:url(#SVGID_2_);}
	.st3{fill:#E30613;}
</style>
<g id="Calque_1_1_" class="st0">
	<g class="st1">
		<g>
			<g>
				<defs>
					<rect id="SVGID_1_" x="10.4" y="-1.6" width="51.1" height="51.2"/>
				</defs>
				<clipPath id="SVGID_2_">
					<use xlink:href="#SVGID_1_"  style="overflow:visible;"/>
				</clipPath>
				<path class="st2" d="M54,42c10-10,10-26.1,0-36.1s-26.1-10-36.1,0S7.9,32,17.9,42S44.1,52,54,42L54,42z M19.7,7.7
					c9-9,23.5-9,32.5,0s9,23.5,0,32.5s-23.5,9-32.5,0C10.7,31.3,10.8,16.7,19.7,7.7L19.7,7.7z"/>
			</g>
		</g>
		<path d="M36,33.5c0.4,0,0.7-0.1,0.9-0.4c0.2-0.2,0.4-0.6,0.4-0.9v-7h7c0.4,0,0.7-0.1,0.9-0.4c0.2-0.2,0.4-0.6,0.4-0.9
			c0-0.7-0.6-1.3-1.3-1.3h-7v-7c0-0.7-0.6-1.3-1.3-1.3s-1.3,0.6-1.3,1.3v7h-7c-0.7,0-1.3,0.6-1.3,1.3c0,0.7,0.6,1.3,1.3,1.3h7v7
			C34.7,33,35.2,33.5,36,33.5L36,33.5z"/>
	</g>
</g>
<g id="Calque_2">
	<g>
		<path class="st3" d="M36-1.6C21.9-1.6,10.4,9.9,10.4,24S21.9,49.6,36,49.6S61.6,38.1,61.6,24S50.1-1.6,36-1.6L36-1.6z M36,47
			c-12.7,0-23-10.3-23-23S23.3,1,36,1s23,10.3,23,23S48.7,47,36,47L36,47z"/>
		<path class="st3" d="M36,24"/>
		<rect x="24.2" y="22.6" class="st3" width="23.6" height="2.9"/>
	</g>
</g>
</svg>
