<?xml version="1.0" encoding="utf-8"?>
<!-- Generator: Adobe Illustrator 19.0.0, SVG Export Plug-In . SVG Version: 6.00 Build 0)  -->
<svg version="1.1" id="Capa_1" xmlns="http://www.w3.org/2000/svg" xmlns:xlink="http://www.w3.org/1999/xlink" x="0px" y="0px"
	 viewBox="-223 25 512 512" style="enable-background:new -223 25 512 512;" xml:space="preserve">
<style type="text/css">
	.st0{fill:#FFFFFF;}
</style>
<g>
	<g>
		<path class="st0" d="M214,100C165.7,51.6,101.4,25,33,25s-132.7,26.6-181,75c-48.4,48.4-75,112.6-75,181
			c0,101.9,60.4,194,153.8,234.8c1.3,0.6,2.6,0.8,4,0.8c1.9,0,3.8-0.5,5.4-1.6c2.8-1.8,4.5-4.9,4.6-8.3c0.2-23,2.9-45.9,8-68.2
			l25.5-107.4c1.7-7.1,1.9-14.3,0.7-21.5l-3.4-19.7c-0.3-1.7-0.4-3.4-0.4-5.2v-5.1c0-16.3,4.7-32.1,13.7-45.8
			c4.7-7.1,12.5-11.3,21-11.3h0.7c0,0,0,0,0,0c11.2,0,20.8,7.6,23.6,18.5l0.3,1.1c2,7.9,1.9,16.2-0.1,24.1l-18.6,72.3
			c-3.5,13.4-0.6,27.5,7.9,38.5c8.3,10.9,20.9,17.2,34.5,17.3l0.6,0c52.9,0,91.4-54.1,91.4-128.6c0-32.7-11.8-62.2-33.2-83.1
			c-21.4-20.8-51.5-32.3-84.9-32.3c-37.4,0-69.6,13.1-93.3,37.9c-21.4,22.3-33.6,53.1-33.6,84.5c0,19.5,6.1,41.6,16,57.6
			c1.3,2.1,1.6,4.7,0.8,7l-5.7,16.2c-0.4,1.2-1.4,1.6-1.9,1.7c-0.6,0.2-1.5,0.2-2.4-0.6c-19.8-17.3-34.2-52.1-34.2-82.9
			c0-72.6,47.4-128.7,120.8-142.9c5.4-1.1,9-6.3,7.9-11.7c-1.1-5.4-6.3-9-11.7-7.9c-42.3,8.2-77.6,28.8-102,59.6
			c-22.5,28.4-35,65-35,103c0,36.6,16.9,76.9,41,98c5.7,4.9,13.4,6.7,20.7,4.8c7.3-1.9,13.2-7.3,15.6-14.5l5.7-16.2
			c2.8-8,1.8-16.8-2.7-24c-7.9-12.8-13-31.3-13-47.1c0-49.6,37.5-102.3,106.9-102.3c57.8,0,98.1,39.2,98.1,95.3
			c0,31.5-7.7,59.8-21.6,79.8c-13,18.5-30.6,28.7-49.7,28.7l-0.4,0c-7.4-0.1-14.3-3.6-18.8-9.5c-4.7-6.1-6.3-13.9-4.4-21.4
			l18.6-72.3c2.8-11.1,2.9-22.8,0.1-33.9l-0.3-1.1c-5-19.8-22.6-33.7-43-33.7c0,0,0,0,0,0H9.9c-15.2,0-29.3,7.6-37.7,20.3
			c-11.1,16.9-17,36.5-17,56.8v5.1c0,2.9,0.2,5.7,0.7,8.6l3.4,19.7c0.8,4.5,0.6,9.1-0.4,13.5L-66.6,434c-4.3,18.7-7,37.8-8.1,57.1
			C-153.1,450.8-203,369.9-203,281C-203,150.9-97.1,45,33,45s236,105.9,236,236c0,64.7-25.7,125.1-72.3,170
			c-4,3.8-4.1,10.2-0.3,14.1c3.8,4,10.2,4.1,14.1,0.3c24.5-23.6,43.8-51.4,57.4-82.5c14-32.2,21.1-66.5,21.1-101.9
			C289,212.6,262.4,148.3,214,100z"/>
	</g>
</g>
<g>
	<g>
		<path class="st0" d="M177.1,480.7c-3-4.6-9.2-5.9-13.9-2.8l-0.7,0.5c-4.6,3-5.9,9.2-2.8,13.9c1.9,2.9,5.1,4.5,8.4,4.5
			c1.9,0,3.8-0.5,5.5-1.7l0.7-0.5C178.9,491.5,180.2,485.3,177.1,480.7z"/>
	</g>
</g>
<g>
	<g>
		<path class="st0" d="M173.7,166.1c-22.2-27.1-52.9-46.2-88.7-55.2c-5.4-1.3-10.8,1.9-12.1,7.3s1.9,10.8,7.3,12.1
			c64.8,16.3,108.3,70.3,108.3,134.5c0,86.1-53.5,151-124.3,151c-17.6,0-37.6-10.4-47.5-20.1c-2.5-2.5-6.2-3.5-9.7-2.5
			c-3.5,1-6.1,3.7-7,7.1l-7.2,28c-7.2,28-17.8,55.2-31.4,80.7l-2.4,4.5c-1.4,2.7-1.6,5.9-0.4,8.7s3.6,4.9,6.5,5.7
			c22,6,44.9,9.1,67.9,9.1c31.5,0,62.3-5.7,91.5-16.8c5.2-2,7.7-7.8,5.8-12.9c-2-5.2-7.8-7.7-12.9-5.8C90.4,511.8,62.1,517,33,517
			c-17,0-33.9-1.8-50.4-5.4c12.7-24.9,22.6-51.2,29.6-78.2l3.4-13.2c13.3,8.6,31,15.7,48.6,15.7c40.4,0,77.4-18,104.2-50.7
			c25.9-31.6,40.2-74.4,40.2-120.3C208.5,228.1,196.5,193.9,173.7,166.1z"/>
	</g>
</g>
<g>
	<g>
		<path class="st0" d="M40.6,105.3c-0.6,0-1.1,0-1.7,0c-5.5,0-10,4.5-10,10s4.5,10,10,10c0.5,0,1,0,1.5,0c0,0,0.1,0,0.1,0
			c5.5,0,9.9-4.4,10-9.9C50.6,109.9,46.1,105.4,40.6,105.3z"/>
	</g>
</g>
</svg>
