<svg xmlns="http://www.w3.org/2000/svg" viewBox="-229 31 500 500">
<path d="M110.5,408.6H-68c-6,0-10.8,4.9-10.8,10.8c0,6,4.9,10.8,10.8,10.8h178.6c6,0,10.8-4.9,10.8-10.8
	C121.5,413.5,116.6,408.6,110.5,408.6L110.5,408.6z"/>
<path d="M13.4,369.7c2.1,2.2,4.9,3.5,7.9,3.5s5.9-1.3,7.9-3.5l63.6-68.2c4.1-4.3,3.8-11.3-0.5-15.3
	c-4.3-4.1-11.3-3.8-15.3,0.5l-44.8,48V216.3c0-6-4.9-10.8-10.8-10.8c-6,0-10.8,4.9-10.8,10.8v118.4l-44.7-48
	c-4.1-4.3-11-4.7-15.3-0.5c-4.3,4.1-4.7,11-0.5,15.3L13.4,369.7z"/>
</svg>
